<svg xmlns="http://www.w3.org/2000/svg" version="1.1" xmlns:xlink="http://www.w3.org/1999/xlink" xmlns:svgjs="http://svgjs.dev/svgjs" width="1500" height="1500" viewBox="0 0 1500 1500"><rect width="1500" height="1500" fill="#ffffff"></rect><g transform="matrix(0.6666666666666666,0,0,0.6666666666666666,249.39393939393938,639.1449654759548)"><svg viewBox="0 0 396 88" data-background-color="#e9ddc9" preserveAspectRatio="xMidYMid meet" height="333" width="1500" xmlns="http://www.w3.org/2000/svg" xmlns:xlink="http://www.w3.org/1999/xlink"><g id="tight-bounds" transform="matrix(1,0,0,1,0.2400000000000091,-0.057463792270368685)"><svg viewBox="0 0 395.52 88.11492758454074" height="88.11492758454074" width="395.52"><g><svg viewBox="0 0 535.8619134010742 119.38064748849385" height="88.11492758454074" width="395.52"><g><rect width="5.97005366446812" height="119.38064748849385" x="118.74344700239631" y="0" fill="#000000" opacity="1" stroke-width="0" stroke="transparent" fill-opacity="1" class="rect-qz-0" data-fill-palette-color="primary" rx="1%" id="qz-0" data-palette-color="#3d5237"></rect></g><g transform="matrix(1,0,0,1,140.34191340107418,9.94838729070782)"><svg viewBox="0 0 395.52 99.48387290707821" height="99.48387290707821" width="395.52"><g id="textblocktransform"><svg viewBox="0 0 395.52 99.48387290707821" height="99.48387290707821" width="395.52" id="textblock"><g><svg viewBox="0 0 395.52 66.20076896512029" height="66.20076896512029" width="395.52"><g transform="matrix(1,0,0,1,0,0)"><svg width="395.52" viewBox="4 -35.01 212.07 35.5" height="66.20076896512029" data-palette-color="#3d5237"><g class="wordmark-text-0" data-fill-palette-color="primary" id="text-0"><path d="M23.71-8.59L23.71-8.59Q23.71-6.81 23.03-5.25 22.36-3.69 21.19-2.51 20.02-1.34 18.44-0.67 16.87 0 15.09 0L15.09 0 4 0 4-35.01 15.09-35.01Q16.87-35.01 18.44-34.34 20.02-33.67 21.19-32.5 22.36-31.32 23.03-29.75 23.71-28.17 23.71-26.39L23.71-26.39 23.71-8.59ZM20.56-8.59L20.56-26.39Q20.56-27.56 20.12-28.58 19.68-29.59 18.91-30.36 18.14-31.13 17.13-31.57 16.11-32.01 14.94-32.01L14.94-32.01 7.15-32.01 7.15-3 14.94-3Q16.11-3 17.13-3.44 18.14-3.88 18.91-4.64 19.68-5.4 20.12-6.41 20.56-7.42 20.56-8.59L20.56-8.59ZM45.9 0L29.2 0 29.2-1.34 41.79-22.14 29.68-22.14 29.68-25 45.9-25 45.9-23.66 33.3-2.86 45.9-2.86 45.9 0ZM55.15-31.01L51.66-31.01 51.66-35.01 55.15-35.01 55.15-31.01ZM54.9 0L51.9 0 51.9-25 54.9-25 54.9 0ZM78.61 0L77.6 0 75.94-2.54Q74.92-1.15 73.38-0.33 71.84 0.49 70.01 0.49L70.01 0.49 69.26 0.49Q67.74 0.49 66.4-0.09 65.06-0.66 64.06-1.66 63.05-2.66 62.48-4 61.91-5.35 61.91-6.86L61.91-6.86 61.91-18.14Q61.91-19.65 62.48-21 63.05-22.34 64.06-23.34 65.06-24.34 66.4-24.91 67.74-25.49 69.26-25.49L69.26-25.49 70.01-25.49Q71.7-25.49 73.14-24.8 74.58-24.12 75.6-22.9L75.6-22.9 75.6-35.01 78.61-35.01 78.61 0ZM75.6-6.69L75.6-18.31Q75.6-19.21 75.26-20.01 74.92-20.8 74.33-21.39 73.75-21.97 72.95-22.31 72.16-22.66 71.26-22.66L71.26-22.66 69.26-22.66Q68.35-22.66 67.56-22.31 66.76-21.97 66.18-21.39 65.59-20.8 65.25-20.01 64.91-19.21 64.91-18.31L64.91-18.31 64.91-6.69Q64.91-5.79 65.25-4.99 65.59-4.2 66.18-3.61 66.76-3.03 67.56-2.69 68.35-2.34 69.26-2.34L69.26-2.34 71.26-2.34Q72.16-2.34 72.95-2.69 73.75-3.03 74.33-3.61 74.92-4.2 75.26-4.99 75.6-5.79 75.6-6.69L75.6-6.69ZM100.31 0L83.61 0 83.61-1.34 96.21-22.14 84.1-22.14 84.1-25 100.31-25 100.31-23.66 87.71-2.86 100.31-2.86 100.31 0ZM122.01-6.86L122.01-6.86Q122.01-5.35 121.44-4 120.86-2.66 119.86-1.66 118.86-0.66 117.52-0.09 116.17 0.49 114.66 0.49L114.66 0.49 112.66 0.49Q111.14 0.49 109.8-0.09 108.46-0.66 107.46-1.66 106.46-2.66 105.88-4 105.31-5.35 105.31-6.86L105.31-6.86 105.31-18.14Q105.31-19.65 105.88-21 106.46-22.34 107.46-23.34 108.46-24.34 109.8-24.91 111.14-25.49 112.66-25.49L112.66-25.49 114.66-25.49Q116.17-25.49 117.52-24.91 118.86-24.34 119.86-23.34 120.86-22.34 121.44-21 122.01-19.65 122.01-18.14L122.01-18.14 122.01-6.86ZM119.01-6.69L119.01-18.31Q119.01-19.21 118.66-20.01 118.32-20.8 117.74-21.39 117.15-21.97 116.36-22.31 115.56-22.66 114.66-22.66L114.66-22.66 112.66-22.66Q111.76-22.66 110.96-22.31 110.17-21.97 109.58-21.39 109-20.8 108.65-20.01 108.31-19.21 108.31-18.31L108.31-18.31 108.31-6.69Q108.31-5.79 108.65-4.99 109-4.2 109.58-3.61 110.17-3.03 110.96-2.69 111.76-2.34 112.66-2.34L112.66-2.34 114.66-2.34Q115.56-2.34 116.36-2.69 117.15-3.03 117.74-3.61 118.32-4.2 118.66-4.99 119.01-5.79 119.01-6.69L119.01-6.69ZM148.72-8.59L148.72-8.59Q148.72-6.81 148.04-5.25 147.37-3.69 146.2-2.51 145.03-1.34 143.45-0.67 141.88 0 140.1 0L140.1 0 129.01 0 129.01-35.01 140.1-35.01Q141.88-35.01 143.45-34.34 145.03-33.67 146.2-32.5 147.37-31.32 148.04-29.75 148.72-28.17 148.72-26.39L148.72-26.39 148.72-26.05Q148.72-24.8 148.39-23.67 148.06-22.53 147.45-21.56 146.84-20.58 146.01-19.79 145.18-18.99 144.15-18.46L144.15-18.46Q145.18-17.92 146.01-17.13 146.84-16.33 147.45-15.34 148.06-14.36 148.39-13.22 148.72-12.08 148.72-10.84L148.72-10.84 148.72-8.59ZM145.57-8.59L145.57-11.35Q145.57-12.52 145.13-13.54 144.69-14.55 143.92-15.31 143.15-16.06 142.14-16.5 141.12-16.94 139.95-16.94L139.95-16.94 132.16-16.94 132.16-3 139.95-3Q141.12-3 142.14-3.44 143.15-3.88 143.92-4.64 144.69-5.4 145.13-6.41 145.57-7.42 145.57-8.59L145.57-8.59ZM145.57-25.56L145.57-26.39Q145.57-27.56 145.13-28.58 144.69-29.59 143.92-30.36 143.15-31.13 142.14-31.57 141.12-32.01 139.95-32.01L139.95-32.01 132.16-32.01 132.16-19.95 139.95-19.95Q141.12-19.95 142.14-20.39 143.15-20.83 143.92-21.59 144.69-22.36 145.13-23.38 145.57-24.39 145.57-25.56L145.57-25.56ZM170.42 0L169.42 0 167.76-2.49Q166.73-1.15 165.19-0.33 163.65 0.49 161.82 0.49L161.82 0.49 161.07 0.49Q159.55 0.49 158.21-0.09 156.87-0.66 155.87-1.66 154.87-2.66 154.29-4 153.72-5.35 153.72-6.86L153.72-6.86 153.72-7.1Q153.72-8.62 154.29-9.96 154.87-11.3 155.87-12.3 156.87-13.31 158.21-13.88 159.55-14.45 161.07-14.45L161.07-14.45 167.41-14.45 167.41-18.31Q167.41-19.21 167.07-20.01 166.73-20.8 166.14-21.39 165.56-21.97 164.77-22.31 163.97-22.66 163.07-22.66L163.07-22.66 161.31-22.66Q160.41-22.66 159.61-22.31 158.82-21.97 158.23-21.39 157.65-20.8 157.31-20.01 156.96-19.21 156.96-18.31L156.96-18.31 156.96-17.41 153.96-17.9 153.96-18.14Q153.96-19.65 154.54-21 155.11-22.34 156.11-23.34 157.11-24.34 158.45-24.91 159.8-25.49 161.31-25.49L161.31-25.49 163.07-25.49Q164.58-25.49 165.92-24.91 167.27-24.34 168.27-23.34 169.27-22.34 169.84-21 170.42-19.65 170.42-18.14L170.42-18.14 170.42 0ZM167.41-6.69L167.41-12.11 161.07-12.11Q160.16-12.11 159.37-11.77 158.58-11.43 157.99-10.83 157.4-10.23 157.06-9.44 156.72-8.64 156.72-7.74L156.72-7.74 156.72-6.69Q156.72-5.79 157.06-4.99 157.4-4.2 157.99-3.61 158.58-3.03 159.37-2.69 160.16-2.34 161.07-2.34L161.07-2.34 163.07-2.34Q163.97-2.34 164.77-2.69 165.56-3.03 166.14-3.61 166.73-4.2 167.07-4.99 167.41-5.79 167.41-6.69L167.41-6.69ZM193.61-6.35L193.61-6.35Q193.61-4.83 193-3.58 192.39-2.32 191.34-1.42 190.29-0.51 188.91-0.01 187.53 0.49 186.02 0.49L186.02 0.49 184.01 0.49Q182.5 0.49 181.12-0.09 179.74-0.66 178.7-1.66 177.67-2.66 177.04-4 176.42-5.35 176.42-6.86L176.42-6.86 176.42-7.86 179.42-8.35 179.42-6.69Q179.42-5.79 179.8-4.99 180.18-4.2 180.81-3.61 181.45-3.03 182.28-2.69 183.11-2.34 184.01-2.34L184.01-2.34 186.02-2.34Q186.92-2.34 187.75-2.61 188.58-2.88 189.23-3.38 189.87-3.88 190.25-4.59 190.63-5.3 190.63-6.2L190.63-6.2Q190.63-7.54 190.04-8.4 189.46-9.25 188.49-9.83 187.53-10.4 186.3-10.78 185.06-11.16 183.77-11.54 182.48-11.91 181.24-12.4 180.01-12.89 179.04-13.68 178.08-14.48 177.49-15.67 176.91-16.87 176.91-18.65L176.91-18.65Q176.91-20.17 177.49-21.42 178.08-22.68 179.08-23.58 180.08-24.49 181.41-24.99 182.74-25.49 184.26-25.49L184.26-25.49 186.02-25.49Q187.53-25.49 188.87-24.91 190.21-24.34 191.22-23.34 192.22-22.34 192.79-21 193.36-19.65 193.36-18.14L193.36-18.14 193.36-18.04 190.36-17.55 190.36-18.31Q190.36-19.21 190.02-20.01 189.68-20.8 189.09-21.39 188.51-21.97 187.71-22.31 186.92-22.66 186.02-22.66L186.02-22.66 184.26-22.66Q183.35-22.66 182.56-22.39 181.77-22.12 181.18-21.62 180.6-21.12 180.25-20.41 179.91-19.7 179.91-18.8L179.91-18.8Q179.91-17.5 180.5-16.69 181.08-15.87 182.05-15.31 183.01-14.75 184.25-14.37 185.48-13.99 186.76-13.59 188.04-13.18 189.27-12.67 190.51-12.16 191.47-11.35 192.44-10.55 193.02-9.34 193.61-8.13 193.61-6.35ZM216.07-6.86L216.07-6.86Q216.07-5.35 215.49-4 214.92-2.66 213.92-1.66 212.92-0.66 211.57-0.09 210.23 0.49 208.72 0.49L208.72 0.49 206.72 0.49Q205.2 0.49 203.86-0.09 202.52-0.66 201.52-1.66 200.51-2.66 199.94-4 199.37-5.35 199.37-6.86L199.37-6.86 199.37-18.14Q199.37-19.65 199.94-21 200.51-22.34 201.52-23.34 202.52-24.34 203.86-24.91 205.2-25.49 206.72-25.49L206.72-25.49 208.72-25.49Q210.23-25.49 211.57-24.91 212.92-24.34 213.92-23.34 214.92-22.34 215.49-21 216.07-19.65 216.07-18.14L216.07-18.14 216.07-12.26 202.37-12.26 202.37-6.69Q202.37-5.79 202.71-4.99 203.05-4.2 203.64-3.61 204.23-3.03 205.02-2.69 205.81-2.34 206.72-2.34L206.72-2.34 208.72-2.34Q209.62-2.34 210.41-2.69 211.21-3.03 211.79-3.61 212.38-4.2 212.72-4.99 213.06-5.79 213.06-6.69L213.06-6.69 213.06-8.35 216.07-7.86 216.07-6.86ZM213.06-14.6L213.06-18.31Q213.06-19.21 212.72-20.01 212.38-20.8 211.79-21.39 211.21-21.97 210.41-22.31 209.62-22.66 208.72-22.66L208.72-22.66 206.72-22.66Q205.81-22.66 205.02-22.31 204.23-21.97 203.64-21.39 203.05-20.8 202.71-20.01 202.37-19.21 202.37-18.31L202.37-18.31 202.37-14.6 213.06-14.6Z" fill="#000000" data-fill-palette-color="primary"></path></g></svg></g></svg></g><g transform="matrix(1,0,0,1,0,81.82918169933002)"><svg viewBox="0 0 232.209792 17.654691207748183" height="17.654691207748183" width="232.209792"><g transform="matrix(1,0,0,1,0,0)"><svg width="232.209792" viewBox="0.65 -38.7 516.19 39.25" height="17.654691207748183" data-palette-color="#88654a"><path d="M0.65-4.55L4.55-9.95Q8.8-5.7 13.05-5.7L13.05-5.7Q15.25-5.7 16.57-6.73 17.9-7.75 17.9-9.38 17.9-11 16.3-12.13 14.7-13.25 12.43-14.1 10.15-14.95 7.9-16.03 5.65-17.1 4.05-19.1 2.45-21.1 2.45-23.95L2.45-23.95Q2.45-28.45 6.2-31.73 9.95-35 15.1-35L15.1-35Q17.45-35 19.65-34.5 21.85-34 23.9-33.05L23.9-33.05 20.5-25.75Q19.1-26.85 16.68-27.78 14.25-28.7 12.43-28.7 10.6-28.7 9.47-27.83 8.35-26.95 8.35-25.5 8.35-24.05 9.95-22.93 11.55-21.8 13.83-20.95 16.1-20.1 18.38-19.07 20.65-18.05 22.25-16.05 23.85-14.05 23.85-11.2L23.85-11.2Q23.85-6.5 20.1-2.98 16.35 0.55 11.35 0.55L11.35 0.55Q7.6 0.55 4.7-1.25L4.7-1.25Q2.15-2.8 1.1-4L1.1-4 0.65-4.55ZM42.55-12.65Q42.55-16.1 41.95-17.25 41.35-18.4 39.15-18.4 36.95-18.4 34.15-16.65L34.15-16.65 34.15-13 34.7-1.25 28 0 28.6-12.15Q28.4-18.85 27.5-24.15L27.5-24.15 33.55-25.45Q33.9-22.55 34.05-19.8L34.05-19.8Q34.8-20.8 35.75-21.78 36.7-22.75 38.75-23.98 40.8-25.2 42.9-25.2 45-25.2 46.45-23.85 47.9-22.5 48.3-20.15L48.3-20.15Q52.45-25.2 56.7-25.2L56.7-25.2Q59.35-25.2 60.9-23.43 62.45-21.65 62.45-18.6L62.45-18.6 62.15-13 62.7-1 55.95 0.25 56.55-12.65Q56.55-16.1 55.95-17.25 55.35-18.4 53.2-18.4 51.05-18.4 48.35-16.75L48.35-16.75 48.15-13 48.7-1 41.95 0.25 42.55-12.65ZM73.2 0Q70.25 0 68.37-1.88 66.5-3.75 66.5-6.93 66.5-10.1 69.4-12.43 72.3-14.75 76.45-14.75L76.45-14.75 79.85-14.75 79.85-15.6Q79.85-18.05 78.85-18.95 77.85-19.85 75.1-19.85L75.1-19.85Q73.95-19.85 72.37-19.38 70.8-18.9 68.85-17.9L68.85-17.9 67.4-21.85Q69.55-23.35 72.62-24.55 75.7-25.75 77.7-25.75L77.7-25.75Q85.55-25.75 85.55-18.15L85.55-18.15 85.55-8.35Q85.55-5.55 87.3-2.1L87.3-2.1 82 0.15Q80.75-2.25 80.15-4.15L80.15-4.15Q77.4 0 73.2 0L73.2 0ZM75.3-5.1L75.3-5.1Q77.3-5.1 79.85-7.15L79.85-7.15 79.85-10.5Q77.2-11.1 75.55-11.1L75.55-11.1Q72.4-11.1 72.4-8.3L72.4-8.3Q72.4-6.85 73.2-5.98 74-5.1 75.3-5.1ZM91.09-24.15L91.09-24.15 97.14-25.45Q97.59-21.6 97.74-18.15L97.74-18.15Q102.29-25.2 106.29-25.2L106.29-25.2 105.74-17.4Q102.84-17.4 101.17-16.88 99.49-16.35 97.74-14.8L97.74-14.8 97.74-13 98.29-1.25 91.59 0 92.19-12.15Q91.99-18.85 91.09-24.15ZM108.49-24.2L111.39-24.2 111.39-29.65 118.14-30.95 117.49-24.2 123.54-24.2 122.99-20.1 117.29-20.1 117.04-9.65Q117.04-7.3 117.49-6.53 117.94-5.75 119.14-5.75 120.34-5.75 122.34-6.3L122.34-6.3 122.64-2.75Q119.34 0 116.84 0 114.34 0 112.74-1.83 111.14-3.65 111.14-6.6L111.14-6.6 111.44-12.2 111.39-20.1 107.94-20.1 108.49-24.2ZM136.19-5.1L136.19-5.1Q137.64-5.1 139.24-5.85 140.84-6.6 141.74-7.35L141.74-7.35 142.64-8.1 144.94-5.3Q144.44-4.45 143.39-3.35 142.34-2.25 141.26-1.48 140.19-0.7 138.41-0.08 136.64 0.55 134.74 0.55L134.74 0.55Q130.69 0.55 128.14-2.53 125.59-5.6 125.59-10.45L125.59-10.45Q125.59-16.55 129.14-21.15 132.69-25.75 137.44-25.75L137.44-25.75Q141.09-25.75 143.11-23.7 145.14-21.65 145.14-17.95L145.14-17.95Q145.14-15.75 144.39-12.95L144.39-12.95 143.39-11.9 130.89-10.75Q131.74-5.1 136.19-5.1ZM136.19-20.6L136.19-20.6Q133.99-20.6 132.49-18.82 130.99-17.05 130.74-14.3L130.74-14.3 139.24-15.35Q139.39-16.5 139.39-17.25L139.39-17.25Q139.39-20.6 136.19-20.6ZM148.94-24.15L148.94-24.15 154.99-25.45Q155.44-21.6 155.59-18.15L155.59-18.15Q160.14-25.2 164.14-25.2L164.14-25.2 163.59-17.4Q160.69-17.4 159.01-16.88 157.34-16.35 155.59-14.8L155.59-14.8 155.59-13 156.14-1.25 149.44 0 150.04-12.15Q149.84-18.85 148.94-24.15ZM182.53-4.65L182.53-4.65Q185.13-4.65 185.13-6.95L185.13-6.95Q185.13-7.75 184.01-8.45 182.88-9.15 181.26-9.85 179.63-10.55 178.01-11.43 176.38-12.3 175.26-13.85 174.13-15.4 174.13-17.4L174.13-17.4Q174.13-20.75 177.08-23.25 180.03-25.75 183.88-25.75L183.88-25.75Q185.68-25.75 187.41-25.33 189.13-24.9 190.73-24L190.73-24 187.38-17.9Q187.03-18.2 186.48-18.65 185.93-19.1 184.41-19.83 182.88-20.55 181.71-20.55 180.53-20.55 179.91-20.03 179.28-19.5 179.28-18.57 179.28-17.65 181.01-16.73 182.73-15.8 184.78-15.03 186.83-14.25 188.56-12.48 190.28-10.7 190.28-8.25L190.28-8.25Q190.28-4.75 187.41-2.1 184.53 0.55 180.78 0.55L180.78 0.55Q178.38 0.55 176.31-0.5 174.23-1.55 173.33-2.6L173.33-2.6 172.43-3.65 176.38-8.25Q176.68-7.85 177.23-7.25 177.78-6.65 179.41-5.65 181.03-4.65 182.53-4.65ZM203.28-19.25Q201.08-19.25 199.88-17.68 198.68-16.1 198.68-12.85 198.68-9.6 199.9-7.63 201.13-5.65 203.48-5.65L203.48-5.65Q204.68-5.65 205.83-6.4 206.98-7.15 207.58-7.9L207.58-7.9 208.13-8.7 210.63-6.1Q210.48-5.85 210.25-5.4 210.03-4.95 209.15-3.8 208.28-2.65 207.3-1.78 206.33-0.9 204.78-0.18 203.23 0.55 201.53 0.55L201.53 0.55Q197.78 0.55 195.43-2.5 193.08-5.55 193.08-10.45L193.08-10.45Q193.08-16.55 196.63-21.15 200.18-25.75 204.93-25.75L204.93-25.75Q206.38-25.75 207.83-25.33 209.28-24.9 210.78-24L210.78-24 207.28-17.85Q205.48-19.25 203.28-19.25ZM228.53-12.65Q228.53-16.1 227.93-17.25 227.33-18.4 225.13-18.4 222.93-18.4 220.13-16.65L220.13-16.65 220.13-13 220.68-1.25 213.93 0 214.53-12.15 213.93-37.45 220.78-38.7 220.13-25.75 220.13-19.9Q220.88-20.9 221.83-21.85 222.78-22.8 224.78-24 226.78-25.2 229.05-25.2 231.33-25.2 232.88-23.43 234.43-21.65 234.43-18.6L234.43-18.6 234.13-13 234.68-1 227.93 0.25 228.53-12.65ZM238.67-10.45Q238.67-16.85 242.12-21.3 245.57-25.75 250.2-25.75 254.82-25.75 257.4-22.75 259.97-19.75 259.97-14.8L259.97-14.8Q259.97-8.2 256.65-3.83 253.32 0.55 248.27 0.55L248.27 0.55Q244.12 0.55 241.4-2.58 238.67-5.7 238.67-10.45L238.67-10.45ZM254.37-12.2L254.37-12.2Q254.37-19.45 249.42-19.45L249.42-19.45Q244.27-19.45 244.27-12.65L244.27-12.65Q244.27-9.1 245.72-7.1 247.17-5.1 249.55-5.1 251.92-5.1 253.15-6.93 254.37-8.75 254.37-12.2ZM262.77-10.45Q262.77-16.85 266.22-21.3 269.67-25.75 274.3-25.75 278.92-25.75 281.5-22.75 284.07-19.75 284.07-14.8L284.07-14.8Q284.07-8.2 280.75-3.83 277.42 0.55 272.37 0.55L272.37 0.55Q268.22 0.55 265.5-2.58 262.77-5.7 262.77-10.45L262.77-10.45ZM278.47-12.2L278.47-12.2Q278.47-19.45 273.52-19.45L273.52-19.45Q268.37-19.45 268.37-12.65L268.37-12.65Q268.37-9.1 269.82-7.1 271.27-5.1 273.65-5.1 276.02-5.1 277.25-6.93 278.47-8.75 278.47-12.2ZM288.37-37.45L295.22-38.7 294.57-13 295.12-1.25 288.37 0 288.97-12.15 288.37-37.45ZM308.57-4.65L308.57-4.65Q311.17-4.65 311.17-6.95L311.17-6.95Q311.17-7.75 310.04-8.45 308.92-9.15 307.29-9.85 305.67-10.55 304.04-11.43 302.42-12.3 301.29-13.85 300.17-15.4 300.17-17.4L300.17-17.4Q300.17-20.75 303.12-23.25 306.07-25.75 309.92-25.75L309.92-25.75Q311.72-25.75 313.44-25.33 315.17-24.9 316.77-24L316.77-24 313.42-17.9Q313.07-18.2 312.52-18.65 311.97-19.1 310.44-19.83 308.92-20.55 307.74-20.55 306.57-20.55 305.94-20.03 305.32-19.5 305.32-18.57 305.32-17.65 307.04-16.73 308.77-15.8 310.82-15.03 312.87-14.25 314.59-12.48 316.32-10.7 316.32-8.25L316.32-8.25Q316.32-4.75 313.44-2.1 310.57 0.55 306.82 0.55L306.82 0.55Q304.42 0.55 302.34-0.5 300.27-1.55 299.37-2.6L299.37-2.6 298.47-3.65 302.42-8.25Q302.72-7.85 303.27-7.25 303.82-6.65 305.44-5.65 307.07-4.65 308.57-4.65ZM335.96-4.65L335.96-4.65Q338.56-4.65 338.56-6.95L338.56-6.95Q338.56-7.75 337.44-8.45 336.31-9.15 334.69-9.85 333.06-10.55 331.44-11.43 329.81-12.3 328.69-13.85 327.56-15.4 327.56-17.4L327.56-17.4Q327.56-20.75 330.51-23.25 333.46-25.75 337.31-25.75L337.31-25.75Q339.11-25.75 340.84-25.33 342.56-24.9 344.16-24L344.16-24 340.81-17.9Q340.46-18.2 339.91-18.65 339.36-19.1 337.84-19.83 336.31-20.55 335.14-20.55 333.96-20.55 333.34-20.03 332.71-19.5 332.71-18.57 332.71-17.65 334.44-16.73 336.16-15.8 338.21-15.03 340.26-14.25 341.99-12.48 343.71-10.7 343.71-8.25L343.71-8.25Q343.71-4.75 340.84-2.1 337.96 0.55 334.21 0.55L334.21 0.55Q331.81 0.55 329.74-0.5 327.66-1.55 326.76-2.6L326.76-2.6 325.86-3.65 329.81-8.25Q330.11-7.85 330.66-7.25 331.21-6.65 332.84-5.65 334.46-4.65 335.96-4.65ZM347.16-24.2L350.06-24.2 350.06-29.65 356.81-30.95 356.16-24.2 362.21-24.2 361.66-20.1 355.96-20.1 355.71-9.65Q355.71-7.3 356.16-6.53 356.61-5.75 357.81-5.75 359.01-5.75 361.01-6.3L361.01-6.3 361.31-2.75Q358.01 0 355.51 0 353.01 0 351.41-1.83 349.81-3.65 349.81-6.6L349.81-6.6 350.11-12.2 350.06-20.1 346.61-20.1 347.16-24.2ZM370.86 0Q367.91 0 366.03-1.88 364.16-3.75 364.16-6.93 364.16-10.1 367.06-12.43 369.96-14.75 374.11-14.75L374.11-14.75 377.51-14.75 377.51-15.6Q377.51-18.05 376.51-18.95 375.51-19.85 372.76-19.85L372.76-19.85Q371.61-19.85 370.03-19.38 368.46-18.9 366.51-17.9L366.51-17.9 365.06-21.85Q367.21-23.35 370.28-24.55 373.36-25.75 375.36-25.75L375.36-25.75Q383.21-25.75 383.21-18.15L383.21-18.15 383.21-8.35Q383.21-5.55 384.96-2.1L384.96-2.1 379.66 0.15Q378.41-2.25 377.81-4.15L377.81-4.15Q375.06 0 370.86 0L370.86 0ZM372.96-5.1L372.96-5.1Q374.96-5.1 377.51-7.15L377.51-7.15 377.51-10.5Q374.86-11.1 373.21-11.1L373.21-11.1Q370.06-11.1 370.06-8.3L370.06-8.3Q370.06-6.85 370.86-5.98 371.66-5.1 372.96-5.1ZM388.75-24.15L388.75-24.15 394.8-25.45Q395.25-21.6 395.4-18.15L395.4-18.15Q399.95-25.2 403.95-25.2L403.95-25.2 403.4-17.4Q400.5-17.4 398.83-16.88 397.15-16.35 395.4-14.8L395.4-14.8 395.4-13 395.95-1.25 389.25 0 389.85-12.15Q389.65-18.85 388.75-24.15ZM406.15-24.2L409.05-24.2 409.05-29.65 415.8-30.95 415.15-24.2 421.2-24.2 420.65-20.1 414.95-20.1 414.7-9.65Q414.7-7.3 415.15-6.53 415.6-5.75 416.8-5.75 418-5.75 420-6.3L420-6.3 420.3-2.75Q417 0 414.5 0 412 0 410.4-1.83 408.8-3.65 408.8-6.6L408.8-6.6 409.1-12.2 409.05-20.1 405.6-20.1 406.15-24.2ZM447.15-12.65Q447.15-16.1 446.55-17.25 445.95-18.4 443.75-18.4 441.55-18.4 438.75-16.65L438.75-16.65 438.75-13 439.3-1.25 432.55 0 433.15-12.15 432.55-37.45 439.4-38.7 438.75-25.75 438.75-19.9Q439.5-20.9 440.45-21.85 441.4-22.8 443.4-24 445.4-25.2 447.67-25.2 449.95-25.2 451.5-23.43 453.05-21.65 453.05-18.6L453.05-18.6 452.75-13 453.3-1 446.55 0.25 447.15-12.65ZM467.79-5.1L467.79-5.1Q469.24-5.1 470.84-5.85 472.44-6.6 473.34-7.35L473.34-7.35 474.24-8.1 476.54-5.3Q476.04-4.45 474.99-3.35 473.94-2.25 472.87-1.48 471.79-0.7 470.02-0.08 468.24 0.55 466.34 0.55L466.34 0.55Q462.29 0.55 459.74-2.53 457.19-5.6 457.19-10.45L457.19-10.45Q457.19-16.55 460.74-21.15 464.29-25.75 469.04-25.75L469.04-25.75Q472.69-25.75 474.72-23.7 476.74-21.65 476.74-17.95L476.74-17.95Q476.74-15.75 475.99-12.95L475.99-12.95 474.99-11.9 462.49-10.75Q463.34-5.1 467.79-5.1ZM467.79-20.6L467.79-20.6Q465.59-20.6 464.09-18.82 462.59-17.05 462.34-14.3L462.34-14.3 470.84-15.35Q470.99-16.5 470.99-17.25L470.99-17.25Q470.99-20.6 467.79-20.6ZM480.54-24.15L480.54-24.15 486.59-25.45Q487.04-21.6 487.19-18.15L487.19-18.15Q491.74-25.2 495.74-25.2L495.74-25.2 495.19-17.4Q492.29-17.4 490.62-16.88 488.94-16.35 487.19-14.8L487.19-14.8 487.19-13 487.74-1.25 481.04 0 481.64-12.15Q481.44-18.85 480.54-24.15ZM507.89-5.1L507.89-5.1Q509.34-5.1 510.94-5.85 512.54-6.6 513.44-7.35L513.44-7.35 514.34-8.1 516.64-5.3Q516.14-4.45 515.09-3.35 514.04-2.25 512.96-1.48 511.89-0.7 510.11-0.08 508.34 0.55 506.44 0.55L506.44 0.55Q502.39 0.55 499.84-2.53 497.29-5.6 497.29-10.45L497.29-10.45Q497.29-16.55 500.84-21.15 504.39-25.75 509.14-25.75L509.14-25.75Q512.79-25.75 514.81-23.7 516.84-21.65 516.84-17.95L516.84-17.95Q516.84-15.75 516.09-12.95L516.09-12.95 515.09-11.9 502.59-10.75Q503.44-5.1 507.89-5.1ZM507.89-20.6L507.89-20.6Q505.69-20.6 504.19-18.82 502.69-17.05 502.44-14.3L502.44-14.3 510.94-15.35Q511.09-16.5 511.09-17.25L511.09-17.25Q511.09-20.6 507.89-20.6Z" opacity="1" transform="matrix(1,0,0,1,0,0)" fill="#000000" class="slogan-text-1" data-fill-palette-color="secondary" id="text-1"></path></svg></g></svg></g></svg></g></svg></g><g transform="matrix(1,0,0,1,0,8.132806610153636)"><svg viewBox="0 0 103.11503426818658 103.11503426818658" height="103.11503426818658" width="103.11503426818658"><g><svg xmlns="http://www.w3.org/2000/svg" xmlns:xlink="http://www.w3.org/1999/xlink" version="1.1" x="0" y="0" viewBox="0 0 100 100" enable-background="new 0 0 100 100" xml:space="preserve" height="103.11503426818658" width="103.11503426818658" class="icon-icon-0" data-fill-palette-color="accent" id="icon-0"><polygon points="95.84,33.255 50,10.469 4.16,33.255 0,24.883 49.935,0.059 49.955,0 50,0.026 50.045,0 50.065,0.059 100,24.883 " fill="#000000" data-fill-palette-color="accent"></polygon><path d="M50.43 45.228c-3.001-2.865-20.215-12.826-43.763-2.683 0 0.163 0 2.969 0 7.266V98.21H42.35c1.218 1.041 4.128 1.79 7.533 1.79 3.418 0 6.321-0.749 7.552-1.79h35.898V49.811c0-4.297 0-7.103 0-7.266C70.749 32.598 52.708 43.125 50.43 45.228zM47.227 94.739c0-1.907-16.745-13.06-36.094-0.892V46.66c3.828-2.207 8.984-3.548 14.674-3.548 11.836 0 21.419 3.88 21.419 11.094V94.739zM89.134 93.848c-19.336-12.168-36.08-1.016-36.08 0.892V54.206c0-7.214 9.59-11.094 21.412-11.094 5.69 0 10.847 1.341 14.668 3.548V93.848z" fill="#000000" data-fill-palette-color="accent"></path></svg></g></svg></g></svg></g><defs></defs></svg><rect width="395.52" height="88.11492758454074" fill="none" stroke="none" visibility="hidden"></rect></g></svg></g></svg>